<?xml version="1.0" encoding="UTF-8"?>
<svg width="800" height="600" viewBox="0 0 800 600" xmlns="http://www.w3.org/2000/svg">
    <defs>
        <linearGradient id="grad1" x1="0%" y1="0%" x2="100%" y2="100%">
            <stop offset="0%" style="stop-color:#006400;stop-opacity:0.2"/>
            <stop offset="100%" style="stop-color:#004d00;stop-opacity:0.1"/>
        </linearGradient>
    </defs>
    <rect width="100%" height="100%" fill="white"/>
    <!-- Brand Elements -->
    <g transform="translate(100, 100)">
        <!-- Logo Shape -->
        <circle cx="150" cy="150" r="100" fill="none" stroke="#006400" stroke-width="3"/>
        <path d="M100,150 L200,150 M150,100 L150,200" stroke="#006400" stroke-width="3"/>
        <!-- Typography -->
        <g fill="#006400" opacity="0.7">
            <rect x="300" y="120" width="200" height="10" rx="5"/>
            <rect x="300" y="150" width="150" height="10" rx="5"/>
            <rect x="300" y="180" width="180" height="10" rx="5"/>
        </g>
        <!-- Color Swatches -->
        <rect x="550" y="100" width="50" height="50" fill="#006400" opacity="0.1"/>
        <rect x="550" y="160" width="50" height="50" fill="#006400" opacity="0.2"/>
        <rect x="550" y="220" width="50" height="50" fill="#006400" opacity="0.3"/>
    </g>
    <!-- Business Cards -->
    <g transform="translate(150, 350)">
        <rect x="0" y="0" width="200" height="120" fill="#006400" opacity="0.1"/>
        <rect x="220" y="20" width="200" height="120" fill="#006400" opacity="0.15"/>
        <rect x="440" y="40" width="200" height="120" fill="#006400" opacity="0.2"/>
    </g>
</svg>
