<?xml version="1.0" encoding="UTF-8"?>
<svg width="800" height="600" viewBox="0 0 800 600" xmlns="http://www.w3.org/2000/svg">
    <defs>
        <linearGradient id="grad1" x1="0%" y1="0%" x2="100%" y2="100%">
            <stop offset="0%" style="stop-color:#006400;stop-opacity:0.2"/>
            <stop offset="100%" style="stop-color:#004d00;stop-opacity:0.1"/>
        </linearGradient>
    </defs>
    <rect width="100%" height="100%" fill="white"/>
    <!-- Drawing Tools -->
    <g transform="translate(100, 50)">
        <!-- Pencil -->
        <path d="M50,200 L200,50 L220,70 L70,220 Z" fill="#006400" opacity="0.2"/>
        <rect x="190" y="40" width="40" height="40" transform="rotate(45)" fill="#006400"/>
        <!-- Brush -->
        <path d="M300,100 Q400,50 450,150 Q400,200 350,150 Z" fill="#006400" opacity="0.3"/>
        <!-- Color Palette -->
        <circle cx="500" cy="150" r="40" fill="#006400" opacity="0.1"/>
        <circle cx="550" cy="150" r="40" fill="#006400" opacity="0.2"/>
        <circle cx="600" cy="150" r="40" fill="#006400" opacity="0.3"/>
    </g>
    <!-- Design Elements -->
    <g transform="translate(100, 300)">
        <rect x="50" y="50" width="100" height="100" rx="10" fill="#006400" opacity="0.1"/>
        <circle cx="250" cy="100" r="50" fill="#006400" opacity="0.2"/>
        <path d="M350,50 L450,50 L400,150 Z" fill="#006400" opacity="0.3"/>
    </g>
    <!-- Decorative Lines -->
    <g stroke="#006400" stroke-width="2" opacity="0.5">
        <line x1="100" y1="500" x2="200" y2="500"/>
        <line x1="300" y1="500" x2="400" y2="500"/>
        <line x1="500" y1="500" x2="600" y2="500"/>
    </g>
</svg>
