<?xml version="1.0" encoding="UTF-8"?>
<svg width="800" height="600" viewBox="0 0 800 600" xmlns="http://www.w3.org/2000/svg">
    <defs>
        <linearGradient id="grad1" x1="0%" y1="0%" x2="100%" y2="100%">
            <stop offset="0%" style="stop-color:#006400;stop-opacity:0.2"/>
            <stop offset="100%" style="stop-color:#004d00;stop-opacity:0.1"/>
        </linearGradient>
    </defs>
    <rect width="100%" height="100%" fill="white"/>
    <g transform="translate(100, 50)">
        <!-- Monitor -->
        <rect x="50" y="50" width="500" height="300" rx="10" fill="#f8f9fa" stroke="#006400" stroke-width="2"/>
        <rect x="70" y="70" width="460" height="240" fill="white" stroke="#006400" stroke-width="1"/>
        <!-- Code Lines -->
        <g fill="#006400" opacity="0.7">
            <rect x="90" y="90" width="200" height="10" rx="2"/>
            <rect x="90" y="110" width="150" height="10" rx="2"/>
            <rect x="90" y="130" width="300" height="10" rx="2"/>
            <rect x="90" y="150" width="250" height="10" rx="2"/>
            <rect x="90" y="170" width="180" height="10" rx="2"/>
        </g>
        <!-- Stand -->
        <path d="M275,350 L325,350 L300,400 Z" fill="#006400"/>
        <rect x="250" y="400" width="100" height="10" rx="5" fill="#006400"/>
    </g>
    <!-- Decorative Elements -->
    <circle cx="650" cy="150" r="30" fill="url(#grad1)"/>
    <circle cx="700" cy="250" r="20" fill="url(#grad1)"/>
    <circle cx="600" cy="300" r="25" fill="url(#grad1)"/>
</svg>
