<svg xmlns="http://www.w3.org/2000/svg" xmlns:xlink="http://www.w3.org/1999/xlink" width="271" zoomAndPan="magnify" viewBox="0 0 203.25 144.75" height="193" preserveAspectRatio="xMidYMid meet" version="1.0"><defs><clipPath id="ca26842976"><path d="M 71 35 L 202.503906 35 L 202.503906 108 L 71 108 Z M 71 35 " clip-rule="nonzero"/></clipPath><clipPath id="cdccc02fdb"><path d="M 1.058594 0.613281 L 84 0.613281 L 84 143.882812 L 1.058594 143.882812 Z M 1.058594 0.613281 " clip-rule="nonzero"/></clipPath></defs><g clip-path="url(#ca26842976)"><path fill="#22002d" d="M 118.21875 52.675781 C 117.394531 53.425781 114.183594 56.605469 110.828125 69.992188 C 108.613281 78.8125 107.136719 88.605469 106.164062 95.085938 C 105.808594 97.4375 105.53125 99.292969 105.28125 100.675781 C 105.128906 101.535156 104.996094 102.167969 104.859375 102.671875 C 103.722656 106.898438 100.367188 107.398438 99.367188 107.453125 C 92.765625 107.785156 90.007812 100.109375 88.683594 96.414062 C 86.96875 91.644531 85.273438 85.167969 83.476562 78.316406 C 80.585938 67.28125 76.539062 51.828125 71.714844 43.359375 C 71.488281 42.953125 71.449219 42.472656 71.605469 42.035156 C 71.726562 41.695312 71.957031 41.40625 72.261719 41.21875 C 72.828125 40.871094 73.707031 40.492188 74.847656 40.492188 C 76.757812 40.492188 79 41.566406 81.328125 43.597656 C 84.828125 46.652344 87.425781 50.601562 88.847656 55.027344 C 90.96875 61.625 92.820312 68.679688 94.582031 75.410156 C 95.160156 77.617188 95.824219 80.148438 96.519531 82.6875 C 99.441406 65.722656 103.542969 49.453125 111.242188 43.5625 C 119.289062 37.40625 140.867188 33.863281 158.609375 36.320312 C 185.816406 40.082031 202.5 49.1875 202.5 49.1875 C 178.617188 42.535156 132.117188 40.101562 118.21875 52.675781 " fill-opacity="1" fill-rule="nonzero"/></g><g clip-path="url(#cdccc02fdb)"><path fill="#00bf63" d="M 70.941406 38.234375 C 69.828125 38.84375 68.980469 39.832031 68.527344 41.015625 C 67.925781 42.582031 67.191406 44.898438 66.371094 48.292969 C 64.871094 54.492188 63.519531 62.355469 62.089844 70.683594 C 58.101562 93.875 53.976562 117.855469 43.957031 126.945312 C 42.234375 128.511719 39.808594 129.007812 37.628906 128.246094 C 34.449219 127.132812 32.851562 124.019531 31.167969 119.019531 C 30.050781 115.699219 28.757812 111.003906 27.332031 105.058594 C 24.972656 95.234375 22.167969 81.734375 18.996094 64.9375 C 18.285156 61.171875 17.585938 57.40625 16.910156 53.703125 C 16.121094 62.242188 15.179688 71.328125 14.074219 80.390625 C 11.441406 101.921875 8.394531 119.183594 5.011719 131.691406 C 3.75 136.347656 2.441406 140.371094 1.058594 143.800781 C 1.058594 143.800781 8.816406 6.675781 8.832031 6.328125 C 8.972656 3.390625 11.304688 1.035156 14.238281 0.867188 C 17.171875 0.703125 19.757812 2.777344 20.230469 5.675781 C 20.273438 5.9375 24.53125 32.078125 29.597656 59.199219 C 35.101562 88.667969 38.621094 103.640625 40.765625 111.246094 C 45.273438 100.726562 48.367188 82.746094 50.777344 68.738281 C 55.175781 43.152344 57.628906 30.714844 65.253906 27.554688 C 66.9375 26.855469 70.332031 26.089844 74.152344 28.785156 C 77.792969 31.355469 80.835938 35.734375 83.464844 41.152344 C 77.597656 36.03125 73.234375 36.984375 70.941406 38.234375 " fill-opacity="1" fill-rule="nonzero"/></g><path stroke-linecap="butt" transform="matrix(0.747243, 0, 0, 0.747243, 27.751159, 13.068845)" fill="none" stroke-linejoin="miter" d="M -0.00155061 1.998888 L 92.960015 1.998888 " stroke="#ffffff" stroke-width="4" stroke-opacity="1" stroke-miterlimit="4"/></svg>